<svg xmlns="http://www.w3.org/2000/svg" fill="none" viewBox="0 0 60 60"><rect width="60" height="60" fill="#38BDF8" rx="10"/><path fill="#0F172A" fill-rule="evenodd" d="M30 18.6A11.4 11.4 0 0 1 44.7 7.7a1.6 1.6 0 0 1 .7 2.7l-7.2 7.2a4.9 4.9 0 0 0 4.2 4.2l7.2-7.2a1.6 1.6 0 0 1 2.7.7A11.4 11.4 0 0 1 40.4 30c-2.2-.2-4 .2-5 1.3L19.9 50.1a7.1 7.1 0 1 1-10-10l18.8-15.5c1.1-1 1.5-2.8 1.3-5v-1ZM13 45.4a1.6 1.6 0 0 1 1.5-1.6 1.6 1.6 0 0 1 1.7 1.6 1.6 1.6 0 0 1-1.6 1.7 1.6 1.6 0 0 1-1.7-1.6Z" clip-rule="evenodd"/><path fill="#0F172A" d="M25.8 22.7 21.1 18v-3.4a1.6 1.6 0 0 0-.8-1.4l-8.2-5a1.6 1.6 0 0 0-2 .3l-1.6 1.7a1.6 1.6 0 0 0-.2 2l4.9 8a1.6 1.6 0 0 0 1.4.9H18l4.4 4.4 3.4-2.8Z"/><path fill="#0F172A" fill-rule="evenodd" d="m31.2 41.5 9 9.1a7.3 7.3 0 0 0 10.4-10.3L43.4 33c-1 .2-2.2.2-3.3.1h-1.8l-.4.2-6.7 8.1Zm7.4-2.9a1.6 1.6 0 0 1 2.3 0l4 4a1.6 1.6 0 1 1-2.2 2.4l-4.1-4.1a1.6 1.6 0 0 1 0-2.3Z" clip-rule="evenodd"/></svg>